<?xml version="1.0" encoding="UTF-8"?>
<svg id="Layer_1" data-name="Layer 1" xmlns="http://www.w3.org/2000/svg" xmlns:xlink="http://www.w3.org/1999/xlink" viewBox="0 0 667.57 96.39">
  <defs>
    <style>
      .cls-1 {
        fill: url(#linear-gradient);
      }

      .cls-1, .cls-2, .cls-3 {
        stroke-width: 0px;
      }

      .cls-4 {
        font-family: CenturyGothic-Bold, 'Century Gothic';
        font-size: 10.63px;
        font-weight: 700;
      }

      .cls-2 {
        fill: #00a0c6;
      }

      .cls-3 {
        fill: url(#linear-gradient-2);
      }
    </style>
    <linearGradient id="linear-gradient" x1="1.6" y1="41.88" x2="138.93" y2="41.88" gradientUnits="userSpaceOnUse">
      <stop offset="0" stop-color="#13007c"/>
      <stop offset="1" stop-color="#0388bb"/>
    </linearGradient>
    <linearGradient id="linear-gradient-2" x1="33.99" y1="51.87" x2="131.1" y2="51.87" gradientUnits="userSpaceOnUse">
      <stop offset="0" stop-color="#13007c"/>
      <stop offset=".14" stop-color="#4a3b9a"/>
      <stop offset=".6" stop-color="#fff"/>
      <stop offset="1" stop-color="#0388bb"/>
    </linearGradient>
  </defs>
  <path class="cls-1" d="M81.96,4.57l-3.06,15.43c-3.73-13.9-17.46-14.92-23.9-14.92H17.02L1.6,79.18h36.45c-10.68-3.56-6.44-15.6-6.44-15.6h-7.46l9.33-43.24,12.21-.34c17.97-.85,15.6,9.16,15.77,17.46,15.94-9.66,36.8-13.4,36.8-13.4v-3.05h37.3l3.39-16.45h-56.97Z"/>
  <g>
    <polygon class="cls-2" points="102.58 34.05 124.99 34.05 121.76 48.71 98.96 48.71 102.58 34.05"/>
    <path class="cls-2" d="M95.61,35.19l-5.76,28.29h36.5l-3.15,16.07h-56.06l2.61-15.72s-7.9,9.71-14.07,11.05c-.87.48-6.97-2.29-2.61-11.15,2.53-4.04,14.59-18.25,42.53-28.55Z"/>
  </g>
  <path class="cls-3" d="M49.02,73.21c-4.39-9.73,12.83-26.99,38.46-38.55,16.89-7.61,33.2-10.85,43.62-9.4-10.49-3.72-30.96-1.01-52.57,7.8-28.52,11.62-48.2,29.47-43.97,39.84,2.52,6.18,12.96,8.33,27.01,6.59-6.36-.53-10.89-2.61-12.55-6.29Z"/>
  <text class="cls-4" transform="translate(0 91.16) scale(.85 1)"><tspan x="0" y="0" xml:space="preserve">D E S H   E N G I N E E R I N G</tspan></text>
</svg>